<?xml version="1.0" standalone="no"?>
<!DOCTYPE svg PUBLIC "-//W3C//DTD SVG 20010904//EN"
 "http://www.w3.org/TR/2001/REC-SVG-20010904/DTD/svg10.dtd">
<svg version="1.0" xmlns="http://www.w3.org/2000/svg"
 width="70.000000pt" height="70.000000pt" viewBox="0 0 70.000000 70.000000"
 preserveAspectRatio="xMidYMid meet">
<metadata>
Created by potrace 1.11, written by Peter Selinger 2001-2013
</metadata>
<g transform="translate(0.000000,70.000000) scale(0.100000,-0.100000)"
fill="#000000" stroke="none">
<path d="M152 549 c-118 -59 -135 -236 -31 -310 28 -20 29 -22 14 -39 -21 -24
-16 -61 11 -70 25 -10 113 18 154 49 25 18 43 21 121 21 113 0 166 21 207 83
38 58 38 146 0 204 -47 71 -87 83 -274 83 -142 0 -164 -2 -202 -21z m384 -35
c107 -51 107 -207 0 -258 -24 -11 -62 -16 -124 -16 -83 0 -95 -3 -139 -30 -26
-16 -61 -32 -77 -36 l-30 -7 22 28 c29 37 28 41 -13 61 -107 50 -109 205 -3
257 48 24 315 24 364 1z"/>
<path d="M240 405 c-7 -8 -10 -22 -6 -30 7 -20 42 -19 50 1 8 22 8 22 -13 33
-14 8 -22 7 -31 -4z"/>
<path d="M340 405 c-7 -8 -10 -22 -6 -30 7 -20 42 -19 50 1 8 22 8 22 -13 33
-14 8 -22 7 -31 -4z"/>
<path d="M440 405 c-7 -8 -10 -22 -6 -30 7 -20 42 -19 50 1 8 22 8 22 -13 33
-14 8 -22 7 -31 -4z"/>
</g>
</svg>
